# xmcd
#
# Track frame offsets:
#	150
#	22687
#	42517
#
# Disc length: 792 seconds
#
# Revision: 1
# Processed by: cddbd v1.5PL3 Copyright (c) Steve Scherf et al.
# Submitted via: CDex 1.50Beta5
#
DISCID=18031603
DTITLE=Amy&Ryoo - Amy&Ryoo
DYEAR=1900
DGENRE=Reggae -> Dancehall
TTITLE0=明日へ
TTITLE1=上々
TTITLE2=Dangerous Zone
EXTD=
EXTT0=
EXTT1=
EXTT2=
PLAYORDER=
